# Blender v2.83.0 OBJ File: ''
# www.blender.org
mtllib bottleLiquid.mtl
o erlenmeyer.001
v 0.000000 -0.146181 -0.097454
v 0.000000 0.022815 -0.029236
v 0.011189 0.022815 -0.027010
v 0.037294 -0.146181 -0.090036
v 0.020673 0.022815 -0.020673
v 0.068911 -0.146181 -0.068911
v 0.027010 0.022815 -0.011189
v 0.090036 -0.146181 -0.037294
v 0.029236 0.022815 0.000000
v 0.097454 -0.146181 -0.000000
v 0.027010 0.022815 0.011189
v 0.090036 -0.146181 0.037294
v 0.020673 0.022815 0.020673
v 0.068911 -0.146181 0.068911
v 0.011189 0.022815 0.027010
v 0.037294 -0.146181 0.090036
v 0.000000 0.022815 0.029236
v 0.000000 -0.146181 0.097454
v -0.011188 0.022815 0.027010
v -0.037294 -0.146181 0.090036
v -0.020673 0.022815 0.020673
v -0.068911 -0.146181 0.068911
v -0.027010 0.022815 0.011189
v -0.090036 -0.146181 0.037294
v -0.029236 0.022815 0.000000
v -0.097454 -0.146181 -0.000000
v -0.027010 0.022815 -0.011189
v -0.090036 -0.146181 -0.037294
v -0.020673 0.022815 -0.020673
v -0.068911 -0.146181 -0.068911
v -0.011188 0.022815 -0.027010
v -0.037294 -0.146181 -0.090036
v -0.094869 -0.150628 -0.000000
v -0.087648 -0.150628 0.036304
v 0.000000 -0.150628 -0.094869
v 0.036304 -0.150628 -0.087648
v 0.067082 -0.150628 -0.067082
v 0.087648 -0.150628 -0.036304
v 0.094869 -0.150628 -0.000000
v 0.087648 -0.150628 0.036304
v 0.067082 -0.150628 0.067082
v 0.036304 -0.150628 0.087648
v 0.000000 -0.150628 0.094869
v -0.036304 -0.150628 0.087648
v -0.067082 -0.150628 0.067082
v -0.087648 -0.150628 -0.036304
v -0.067082 -0.150628 -0.067082
v -0.036304 -0.150628 -0.087648
vt 1.000000 0.500000
vt 1.000000 1.000000
vt 0.937500 1.000000
vt 0.937500 0.500000
vt 0.875000 1.000000
vt 0.875000 0.500000
vt 0.812500 1.000000
vt 0.812500 0.500000
vt 0.750000 1.000000
vt 0.750000 0.500000
vt 0.687500 1.000000
vt 0.687500 0.500000
vt 0.625000 1.000000
vt 0.625000 0.500000
vt 0.562500 1.000000
vt 0.562500 0.500000
vt 0.500000 1.000000
vt 0.500000 0.500000
vt 0.437500 1.000000
vt 0.437500 0.500000
vt 0.375000 1.000000
vt 0.375000 0.500000
vt 0.312500 1.000000
vt 0.312500 0.500000
vt 0.250000 1.000000
vt 0.250000 0.500000
vt 0.187500 1.000000
vt 0.187500 0.500000
vt 0.125000 1.000000
vt 0.125000 0.500000
vt 0.062500 1.000000
vt 0.062500 0.500000
vt 0.000000 1.000000
vt 0.000000 0.500000
vt 0.250000 0.500000
vt 0.312500 0.500000
vt 0.750000 0.490000
vt 0.841844 0.471731
vt 0.919706 0.419706
vt 0.971731 0.341844
vt 0.990000 0.250000
vt 0.971731 0.158156
vt 0.919706 0.080294
vt 0.841844 0.028269
vt 0.750000 0.010000
vt 0.658156 0.028269
vt 0.580294 0.080294
vt 0.528269 0.158156
vt 0.510000 0.250000
vt 0.528269 0.341844
vt 0.580294 0.419706
vt 0.658156 0.471731
vt 0.687500 0.500000
vt 0.750000 0.500000
vt 0.375000 0.500000
vt 0.437500 0.500000
vt 0.062500 0.500000
vt 0.125000 0.500000
vt 0.812500 0.500000
vt 0.875000 0.500000
vt 0.500000 0.500000
vt 0.562500 0.500000
vt 0.937500 0.500000
vt 1.000000 0.500000
vt 0.187500 0.500000
vt 0.625000 0.500000
vt 0.000000 0.500000
vn -0.0000 -0.0677 -0.9977
vn -0.0000 0.7972 -0.6037
vn 0.2310 0.7972 -0.5578
vn 0.3818 -0.0677 -0.9218
vn 0.4269 0.7972 -0.4269
vn 0.7055 -0.0677 -0.7055
vn 0.5578 0.7972 -0.2310
vn 0.9218 -0.0677 -0.3818
vn 0.6037 0.7972 0.0000
vn 0.9977 -0.0677 0.0000
vn 0.5578 0.7972 0.2310
vn 0.9218 -0.0677 0.3818
vn 0.4269 0.7972 0.4269
vn 0.7055 -0.0677 0.7055
vn 0.2310 0.7972 0.5578
vn 0.3818 -0.0677 0.9218
vn -0.0000 0.7972 0.6037
vn -0.0000 -0.0677 0.9977
vn -0.2310 0.7972 0.5577
vn -0.3818 -0.0677 0.9218
vn -0.4269 0.7972 0.4269
vn -0.7055 -0.0677 0.7055
vn -0.5578 0.7972 0.2310
vn -0.9218 -0.0677 0.3818
vn -0.6037 0.7972 0.0000
vn -0.9977 -0.0677 0.0000
vn -0.5578 0.7972 -0.2310
vn -0.9218 -0.0677 -0.3818
vn -0.4269 0.7972 -0.4269
vn -0.7055 -0.0677 -0.7055
vn -0.2310 0.7972 -0.5577
vn -0.3818 -0.0677 -0.9218
vn -0.5427 -0.8399 -0.0000
vn -0.5014 -0.8399 0.2077
vn 0.0000 -0.8399 -0.5427
vn 0.2077 -0.8399 -0.5014
vn 0.3837 -0.8399 -0.3837
vn 0.5014 -0.8399 -0.2077
vn 0.5427 -0.8399 -0.0000
vn 0.5014 -0.8399 0.2077
vn 0.3837 -0.8399 0.3837
vn 0.2077 -0.8399 0.5014
vn 0.0000 -0.8399 0.5427
vn -0.2077 -0.8399 0.5014
vn -0.3837 -0.8399 0.3837
vn -0.5014 -0.8399 -0.2077
vn -0.3837 -0.8399 -0.3837
vn -0.2077 -0.8399 -0.5014
usemtl liquid
s 1
f 1/1/1 2/2/2 3/3/3 4/4/4
f 4/4/4 3/3/3 5/5/5 6/6/6
f 6/6/6 5/5/5 7/7/7 8/8/8
f 8/8/8 7/7/7 9/9/9 10/10/10
f 10/10/10 9/9/9 11/11/11 12/12/12
f 12/12/12 11/11/11 13/13/13 14/14/14
f 14/14/14 13/13/13 15/15/15 16/16/16
f 16/16/16 15/15/15 17/17/17 18/18/18
f 18/18/18 17/17/17 19/19/19 20/20/20
f 20/20/20 19/19/19 21/21/21 22/22/22
f 22/22/22 21/21/21 23/23/23 24/24/24
f 24/24/24 23/23/23 25/25/25 26/26/26
f 26/26/26 25/25/25 27/27/27 28/28/28
f 28/28/28 27/27/27 29/29/29 30/30/30
f 30/30/30 29/29/29 31/31/31 32/32/32
f 32/32/32 31/31/31 2/33/2 1/34/1
f 24/24/24 26/26/26 33/35/33 34/36/34
f 35/37/35 36/38/36 37/39/37 38/40/38 39/41/39 40/42/40 41/43/41 42/44/42 43/45/43 44/46/44 45/47/45 34/48/34 33/49/33 46/50/46 47/51/47 48/52/48
f 10/10/10 12/12/12 40/53/40 39/54/39
f 20/20/20 22/22/22 45/55/45 44/56/44
f 30/30/30 32/32/32 48/57/48 47/58/47
f 6/6/6 8/8/8 38/59/38 37/60/37
f 16/16/16 18/18/18 43/61/43 42/62/42
f 1/1/1 4/4/4 36/63/36 35/64/35
f 26/26/26 28/28/28 46/65/46 33/35/33
f 12/12/12 14/14/14 41/66/41 40/53/40
f 22/22/22 24/24/24 34/36/34 45/55/45
f 32/32/32 1/34/1 35/67/35 48/57/48
f 8/8/8 10/10/10 39/54/39 38/59/38
f 18/18/18 20/20/20 44/56/44 43/61/43
f 28/28/28 30/30/30 47/58/47 46/65/46
f 4/4/4 6/6/6 37/60/37 36/63/36
f 14/14/14 16/16/16 42/62/42 41/66/41
f 2/33/2 31/31/31 29/29/29 27/27/27 25/25/25 23/23/23 21/21/21 19/19/19 17/17/17 15/15/15 13/13/13 11/11/11 9/9/9 7/7/7 5/5/5 3/3/3
