# Blender v2.83.0 OBJ File: 'House.blend'
# www.blender.org
mtllib House.mtl
o Cube
v -1.500000 -1.500000 1.500000
v -1.500000 1.500000 1.500000
v -1.500000 -1.500000 -4.278510
v -1.500000 1.500000 -4.278510
v 1.500000 -1.500000 1.500000
v 1.500000 1.500000 1.500000
v 1.500000 -1.500000 -4.278510
v 1.500000 1.500000 -4.278510
v -1.500000 -1.500000 -1.389255
v -1.500000 3.141656 -1.389255
v 1.500000 -1.464101 -1.353356
v 1.500000 3.141656 -1.389255
v -1.500000 1.425563 1.500000
v -1.500000 1.425563 -4.278510
v 1.500000 1.425563 -4.278510
v 1.500000 1.425563 1.500000
v 1.500000 1.425563 -1.389255
v -1.500000 1.425563 -1.389255
v 1.500000 -1.464101 0.019474
v 1.500000 1.425563 0.055373
v 1.500000 0.922021 0.019474
v 1.500000 0.922478 -1.353356
v 1.500000 -1.500000 0.055373
v 1.500000 -1.500000 -1.389255
v 1.500000 0.958389 -1.389255
v 1.500000 0.957908 0.055373
v 1.500000 -1.500000 0.055373
v 1.500000 -1.500000 -1.389255
v 1.500000 0.958389 -1.389255
v 1.500000 0.957908 0.055373
v 1.500000 0.922478 -1.353356
v 1.500000 0.922021 0.019474
v 1.500000 -1.500000 0.055373
v 1.500000 -1.500000 -1.389255
v 1.500000 0.958389 -1.389255
v 1.500000 0.957908 0.055373
v 1.500000 -1.488304 0.019474
v 1.500000 -1.488304 -1.353356
v 1.500000 0.922478 -1.353356
v 1.500000 0.922021 0.019474
v 1.516878 -1.500000 0.055373
v 1.516878 -1.500000 -1.389255
v 1.516878 0.958389 -1.389255
v 1.516878 0.957908 0.055373
v 1.516878 -1.488304 0.019474
v 1.516878 -1.488304 -1.353356
v 1.516878 0.922478 -1.353356
v 1.516878 0.922021 0.019474
v 1.468161 -1.500000 0.055373
v 1.468161 -1.500000 -1.389255
v 1.468161 0.958389 -1.389255
v 1.468161 0.957908 0.055373
v 1.468161 -1.488304 0.019474
v 1.468161 -1.488304 -1.353356
v 1.468161 0.922478 -1.353356
v 1.468161 0.922021 0.019474
v -1.494226 -1.494226 1.494226
v -1.493905 1.496012 1.493148
v -1.494226 -1.494226 -4.272736
v -1.493905 1.496012 -4.271657
v 1.494226 -1.494226 1.494226
v 1.493905 1.496012 1.493148
v 1.494226 -1.494226 -4.272736
v 1.493905 1.496012 -4.271657
v -1.492929 -1.492929 -1.389255
v -1.493890 3.133740 -1.389255
v 1.493988 -1.458233 -1.347932
v 1.493890 3.133740 -1.389255
v -1.492929 1.425563 1.492929
v -1.492929 1.425563 -4.271439
v 1.492929 1.425563 -4.271439
v 1.492929 1.425563 1.492929
v 1.490000 1.425563 -1.389255
v -1.490000 1.425563 -1.389255
v 1.492844 -1.457116 0.019381
v 1.490000 1.425563 0.055373
v 1.500000 0.912021 0.019474
v 1.500000 0.912478 -1.353356
v 1.490000 -1.500000 0.055373
v 1.490000 -1.500000 -1.389255
v 1.491679 0.952843 -1.389255
v 1.491680 0.952361 0.055373
v 1.500000 -1.510000 0.055373
v 1.500000 -1.510000 -1.389255
v 1.500000 0.948389 -1.389255
v 1.500000 0.947908 0.055373
v 1.500000 0.912478 -1.353356
v 1.500000 0.912021 0.019474
v 1.500000 -1.500000 0.045373
v 1.500000 -1.500000 -1.379255
v 1.500000 0.949444 -1.384784
v 1.500000 0.948964 0.050899
v 1.500000 -1.497248 0.023945
v 1.500000 -1.497248 -1.357828
v 1.500000 0.926951 -1.362299
v 1.500000 0.926491 0.028418
v 1.511105 -1.494226 0.049599
v 1.511105 -1.494226 -1.383481
v 1.511105 0.952615 -1.383482
v 1.511105 0.952136 0.049598
v 1.508860 -1.493649 0.022146
v 1.508860 -1.493649 -1.356028
v 1.507832 0.925493 -1.356370
v 1.507833 0.925036 0.022490
v 1.473934 -1.494226 0.049599
v 1.473934 -1.494226 -1.383481
v 1.473934 0.952615 -1.383482
v 1.473934 0.952136 0.049598
v 1.476178 -1.493649 0.022146
v 1.476178 -1.493649 -1.356028
v 1.477206 0.925493 -1.356370
v 1.477205 0.925036 0.022490
vt 0.618797 0.125000
vt 0.625000 0.125000
vt 0.625000 0.250000
vt 0.618797 0.250000
vt 0.625000 0.500000
vt 0.618797 0.500000
vt 0.618797 0.625000
vt 0.625000 0.625000
vt 0.625000 0.750000
vt 0.618797 0.750000
vt 0.618797 0.687500
vt 0.625000 1.000000
vt 0.618797 1.000000
vt 0.125000 0.625000
vt 0.375000 0.625000
vt 0.375000 0.687500
vt 0.375000 0.750000
vt 0.125000 0.750000
vt 0.875000 0.625000
vt 0.875000 0.750000
vt 0.875000 0.500000
vt 0.125000 0.500000
vt 0.375000 0.500000
vt 0.618797 0.000000
vt 0.625000 0.000000
vt 0.375000 0.000000
vt 0.375000 0.125000
vt 0.579866 0.625000
vt 0.375000 1.000000
vt 0.375000 0.687500
vt 0.375000 0.625000
vt 0.375000 0.625000
vt 0.375000 0.687500
vt 0.375000 0.250000
vt 0.579826 0.687500
vt 0.579826 0.687500
vt 0.579866 0.625000
vt 0.000000 0.000000
vt 0.000000 0.000000
vt 0.000000 0.000000
vt 0.000000 0.000000
vt 0.579826 0.687500
vt 0.375000 0.687500
vt 0.579826 0.687500
vt 0.000000 0.000000
vt 0.000000 0.000000
vt 0.000000 0.000000
vt 0.000000 0.000000
vt 0.000000 0.000000
vt 0.000000 0.000000
vt 0.579866 0.625000
vt 0.579866 0.625000
vt 0.375000 0.625000
vt 0.000000 0.000000
vt 0.377992 0.626553
vt 0.377992 0.685947
vt 0.576873 0.626553
vt 0.576835 0.685947
vt 0.000000 0.000000
vt 0.579826 0.687500
vt 0.375000 0.687500
vt 0.000000 0.000000
vt 0.000000 0.000000
vt 0.000000 0.000000
vt 0.375000 0.625000
vt 0.579866 0.625000
vt 0.000000 0.000000
vt 0.618797 0.125000
vt 0.618797 0.250000
vt 0.625000 0.250000
vt 0.625000 0.125000
vt 0.618797 0.500000
vt 0.625000 0.500000
vt 0.618797 0.625000
vt 0.618797 0.687500
vt 0.618797 0.750000
vt 0.625000 0.750000
vt 0.625000 0.625000
vt 0.618797 1.000000
vt 0.625000 1.000000
vt 0.125000 0.625000
vt 0.125000 0.750000
vt 0.375000 0.750000
vt 0.375000 0.687500
vt 0.375000 0.625000
vt 0.875000 0.750000
vt 0.875000 0.625000
vt 0.875000 0.500000
vt 0.125000 0.500000
vt 0.375000 0.500000
vt 0.618797 0.000000
vt 0.625000 0.000000
vt 0.375000 0.000000
vt 0.375000 0.125000
vt 0.579866 0.625000
vt 0.375000 1.000000
vt 0.375000 0.687500
vt 0.375000 0.687500
vt 0.375000 0.625000
vt 0.375000 0.625000
vt 0.375000 0.250000
vt 0.579826 0.687500
vt 0.579826 0.687500
vt 0.579866 0.625000
vt 0.000000 0.000000
vt 0.000000 0.000000
vt 0.000000 0.000000
vt 0.000000 0.000000
vt 0.579826 0.687500
vt 0.579826 0.687500
vt 0.375000 0.687500
vt 0.000000 0.000000
vt 0.000000 0.000000
vt 0.000000 0.000000
vt 0.000000 0.000000
vt 0.000000 0.000000
vt 0.000000 0.000000
vt 0.375000 0.625000
vt 0.579866 0.625000
vt 0.579866 0.625000
vt 0.000000 0.000000
vt 0.377992 0.626553
vt 0.377992 0.685947
vt 0.576873 0.626553
vt 0.576835 0.685947
vt 0.000000 0.000000
vt 0.375000 0.687500
vt 0.579826 0.687500
vt 0.000000 0.000000
vt 0.000000 0.000000
vt 0.000000 0.000000
vt 0.579866 0.625000
vt 0.375000 0.625000
vt 0.000000 0.000000
vn -1.0000 0.0000 0.0000
vn 0.0000 0.0000 -1.0000
vn 1.0000 0.0000 0.0000
vn 0.0000 0.0000 1.0000
vn 0.0000 -1.0000 0.0000
vn 0.0000 0.8695 0.4940
vn 0.0000 0.8695 -0.4940
vn 0.0000 1.0000 0.0000
vn 0.0000 -1.0000 -0.0003
vn 0.0000 1.0000 0.0003
vn 1.0000 0.0027 -0.0013
vn 0.0000 0.0031 1.0000
vn -1.0000 0.0036 0.0013
vn 0.0000 0.0031 -1.0000
vn 0.0017 1.0000 -0.0008
vn 0.0000 -0.8695 -0.4940
vn 0.0000 -0.8695 0.4940
vn 0.0012 1.0000 0.0008
vn -1.0000 0.0027 -0.0013
vn 1.0000 0.0027 0.0013
vn 1.0000 -0.0007 0.0007
vn -1.0000 -0.0002 -0.0009
vn 0.0000 -0.0004 -1.0000
vn 0.0000 -0.0004 1.0000
vn 1.0000 -0.0007 -0.0007
vn -1.0000 -0.0002 0.0019
vn -1.0000 -0.0036 -0.0000
vn -0.4719 -0.8817 -0.0003
vn 0.7071 0.7071 0.0000
vn 0.1302 0.0011 -0.9915
vn 0.3763 -0.9265 0.0000
vn 0.4202 -0.0008 0.9074
vn 0.1301 0.0011 0.9915
vn 1.0000 0.0001 0.0000
vn -0.2491 -0.9685 0.0000
vn -0.9949 -0.0002 -0.1007
vn -0.9949 -0.0002 0.1007
vn -0.9928 0.1198 0.0000
vn -0.4613 0.8872 0.0000
vn 0.1829 0.9831 0.0003
vn 0.4202 -0.0008 -0.9074
vn 0.2746 -0.9616 -0.0003
vn -0.0558 0.0011 -0.9984
vn -0.1494 -0.9888 0.0000
vn -0.1636 -0.0009 0.9865
vn -0.0558 0.0011 0.9984
vn 0.2491 -0.9685 0.0000
vn 0.9949 -0.0002 -0.1007
vn 0.9928 0.1198 0.0000
vn 0.9949 -0.0002 0.1007
vn 0.2163 0.9763 0.0000
vn -0.0638 0.9980 0.0003
vn -0.1636 -0.0009 -0.9865
vn -0.1208 -0.9927 -0.0003
usemtl None
s off
f 18/1/1 10/2/1 4/3/1 14/4/1
f 14/4/2 4/3/2 8/5/2 15/6/2
f 17/7/3 12/8/3 6/9/3 16/10/3 20/11/3
f 16/10/4 6/9/4 2/12/4 13/13/4
f 9/14/5 24/15/5 23/16/5 5/17/5 1/18/5
f 12/8/6 10/19/6 2/20/6 6/9/6
f 8/5/7 4/21/7 10/19/7 12/8/7
f 3/22/5 7/23/5 24/15/5 9/14/5
f 15/6/3 8/5/3 12/8/3 17/7/3
f 13/24/1 2/25/1 10/2/1 18/1/1
f 1/26/1 13/24/1 18/1/1 9/27/1
f 7/23/3 15/6/3 17/7/3 25/28/3 24/15/3
f 5/17/4 16/10/4 13/13/4 1/29/4
f 27/30/4 28/31/4 34/32/4 33/33/4
f 3/34/2 14/4/2 15/6/2 7/23/2
f 9/27/1 18/1/1 14/4/1 3/34/1
f 23/16/3 26/35/3 20/11/3 16/10/3 5/17/3
f 26/35/3 25/28/3 17/7/3 20/11/3
f 26/35/4 23/16/4 27/30/4 30/36/4
f 25/28/4 26/35/4 30/36/4 29/37/4
f 21/38/4 22/39/4 31/40/4 32/41/4
f 30/36/4 27/30/4 33/33/4 36/42/4
f 24/15/4 25/28/4 29/37/4 28/31/4
f 23/16/4 24/15/4 28/31/4 27/30/4
f 36/42/4 33/33/4 41/43/4 44/44/4
f 38/45/8 37/46/8 45/47/8 46/48/8
f 37/46/2 40/49/2 48/50/2 45/47/2
f 34/32/2 35/51/2 43/52/2 42/53/2
f 32/41/4 31/40/4 39/54/4 40/49/4
f 29/37/4 30/36/4 36/42/4 35/51/4
f 28/31/4 29/37/4 35/51/4 34/32/4
f 46/55/3 45/56/3 41/43/3 42/53/3
f 47/57/3 46/55/3 42/53/3 43/52/3
f 45/56/3 48/58/3 44/44/3 41/43/3
f 48/58/3 47/57/3 43/52/3 44/44/3
f 33/33/5 34/32/5 42/53/5 41/43/5
f 40/49/9 39/54/9 47/59/9 48/50/9
f 39/54/4 38/45/4 46/48/4 47/59/4
f 35/51/10 36/42/10 44/44/10 43/52/10
f 33/33/4 36/42/4 52/60/4 49/61/4
f 37/46/8 38/45/8 54/62/8 53/63/8
f 40/49/2 37/46/2 53/63/2 56/64/2
f 35/51/2 34/32/2 50/65/2 51/66/2
f 50/65/1 49/61/1 53/63/1 54/62/1
f 51/66/1 50/65/1 54/62/1 55/67/1
f 52/60/1 51/66/1 55/67/1 56/64/1
f 49/61/1 52/60/1 56/64/1 53/63/1
f 34/32/5 33/33/5 49/61/5 50/65/5
f 39/54/9 40/49/9 56/64/9 55/67/9
f 38/45/4 39/54/4 55/67/4 54/62/4
f 36/42/10 35/51/10 51/66/10 52/60/10
f 54/62/8 53/63/8 37/46/8 45/47/8 46/48/8 38/45/8
f 74/68/11 70/69/11 60/70/11 66/71/11
f 70/69/12 71/72/12 64/73/12 60/70/12
f 73/74/13 76/75/13 72/76/13 62/77/13 68/78/13
f 72/76/14 69/79/14 58/80/14 62/77/14
f 65/81/15 57/82/15 61/83/15 79/84/15 80/85/15
f 68/78/16 62/77/16 58/86/16 66/87/16
f 64/73/17 68/78/17 66/87/17 60/88/17
f 59/89/18 65/81/18 80/85/18 63/90/18
f 71/72/19 73/74/19 68/78/19 64/73/19
f 69/91/20 74/68/20 66/71/20 58/92/20
f 57/93/21 65/94/21 74/68/21 69/91/21
f 63/90/22 80/85/22 81/95/22 73/74/22 71/72/22
f 61/83/23 57/96/23 69/79/23 72/76/23
f 83/97/1 89/98/1 90/99/1 84/100/1
f 59/101/24 63/90/24 71/72/24 70/69/24
f 65/94/25 59/101/25 70/69/25 74/68/25
f 79/84/26 61/83/26 72/76/26 76/75/26 82/102/26
f 82/102/27 76/75/27 73/74/27 81/95/27
f 82/102/2 86/103/2 83/97/2 79/84/2
f 81/95/28 85/104/28 86/103/28 82/102/28
f 77/105/4 88/106/4 87/107/4 78/108/4
f 86/103/1 92/109/1 89/98/1 83/97/1
f 80/85/4 84/100/4 85/104/4 81/95/4
f 79/84/29 83/97/29 84/100/29 80/85/29
f 92/109/30 100/110/30 97/111/30 89/98/30
f 94/112/31 102/113/31 101/114/31 93/115/31
f 93/115/32 101/114/32 104/116/32 96/117/32
f 90/99/33 98/118/33 99/119/33 91/120/33
f 88/106/1 96/117/1 95/121/1 87/107/1
f 85/104/34 91/120/34 92/109/34 86/103/34
f 84/100/1 90/99/1 91/120/1 85/104/1
f 102/122/35 98/118/35 97/111/35 101/123/35
f 103/124/36 99/119/36 98/118/36 102/122/36
f 101/123/37 97/111/37 100/110/37 104/125/37
f 104/125/38 100/110/38 99/119/38 103/124/38
f 89/98/39 97/111/39 98/118/39 90/99/39
f 96/117/40 104/116/40 103/126/40 95/121/40
f 95/121/41 103/126/41 102/113/41 94/112/41
f 91/120/42 99/119/42 100/110/42 92/109/42
f 89/98/43 105/127/43 108/128/43 92/109/43
f 93/115/44 109/129/44 110/130/44 94/112/44
f 96/117/45 112/131/45 109/129/45 93/115/45
f 91/120/46 107/132/46 106/133/46 90/99/46
f 106/133/47 110/130/47 109/129/47 105/127/47
f 107/132/48 111/134/48 110/130/48 106/133/48
f 108/128/49 112/131/49 111/134/49 107/132/49
f 105/127/50 109/129/50 112/131/50 108/128/50
f 90/99/51 106/133/51 105/127/51 89/98/51
f 95/121/52 111/134/52 112/131/52 96/117/52
f 94/112/53 110/130/53 111/134/53 95/121/53
f 92/109/54 108/128/54 107/132/54 91/120/54
f 110/130/5 94/112/5 102/113/5 101/114/5 93/115/5 109/129/5
f 22/39/3 21/38/3 77/105/3 78/108/3
f 21/38/4 32/41/4 88/106/4 77/105/4
f 31/40/4 22/39/4 78/108/4 87/107/4
f 32/41/3 40/49/3 96/117/3 88/106/3
f 39/54/3 31/40/3 87/107/3 95/121/3
l 22 11
l 19 21
l 78 67
l 75 77
